<svg width="32" height="32" viewBox="0 0 32 32" fill="none" xmlns="http://www.w3.org/2000/svg">
<g clip-path="url(#clip0_50_2170)">
<path d="M16 32C24.8366 32 32 24.8366 32 16C32 7.16344 24.8366 0 16 0C7.16344 0 0 7.16344 0 16C0 24.8366 7.16344 32 16 32Z" fill="#3C5A9A"/>
<path d="M21.2018 4.91113H17.6574C15.5541 4.91113 13.2146 5.79578 13.2146 8.84469C13.2248 9.90704 13.2146 10.9245 13.2146 12.0695H10.7812V15.9416H13.2899V27.0888H17.8995V15.8681H20.9421L21.2174 12.0587H17.8201C17.8201 12.0587 17.8277 10.3641 17.8201 9.87195C17.8201 8.66708 19.0738 8.73608 19.1492 8.73608C19.7458 8.73608 20.9058 8.73782 21.2036 8.73608V4.91113H21.2018Z" fill="white"/>
</g>
<defs>
<clipPath id="clip0_50_2170">
<rect width="32" height="32" fill="white"/>
</clipPath>
</defs>
</svg>
