<svg width="64" height="64" viewBox="0 0 64 64" fill="none" xmlns="http://www.w3.org/2000/svg">
<g filter="url(#filter0_d_50_2173)">
<rect x="8" y="4" width="48" height="48" rx="24" fill="#F6F6F6"/>
<g clip-path="url(#clip0_50_2173)">
<path d="M47.2545 28.2989C47.2545 26.9879 47.1481 26.0312 46.9179 25.0391H31.9473V30.9564H40.7347C40.5576 32.4269 39.6009 34.6415 37.4748 36.1296L37.445 36.3277L42.1785 39.9947L42.5064 40.0274C45.5182 37.2458 47.2545 33.1533 47.2545 28.2989Z" fill="#4285F4"/>
<path d="M31.9474 43.8901C36.2525 43.8901 39.8667 42.4727 42.5065 40.0279L37.475 36.1301C36.1285 37.0691 34.3214 37.7246 31.9474 37.7246C27.7309 37.7246 24.1521 34.9432 22.8764 31.0986L22.6894 31.1145L17.7675 34.9236L17.7031 35.1025C20.3252 40.3112 25.7111 43.8901 31.9474 43.8901Z" fill="#34A853"/>
<path d="M22.876 31.0987C22.5394 30.1066 22.3445 29.0435 22.3445 27.9451C22.3445 26.8466 22.5394 25.7837 22.8583 24.7915L22.8493 24.5803L17.8658 20.71L17.7027 20.7875C16.622 22.949 16.002 25.3762 16.002 27.9451C16.002 30.5141 16.622 32.9412 17.7027 35.1026L22.876 31.0987Z" fill="#FBBC05"/>
<path d="M31.9474 18.1654C34.9415 18.1654 36.9611 19.4587 38.1128 20.5395L42.6128 16.1457C39.8491 13.5768 36.2525 12 31.9474 12C25.7111 12 20.3252 15.5787 17.7031 20.7874L22.8587 24.7915C24.1521 20.9469 27.7309 18.1654 31.9474 18.1654Z" fill="#EB4335"/>
</g>
</g>
<defs>
<filter id="filter0_d_50_2173" x="0" y="0" width="64" height="64" filterUnits="userSpaceOnUse" color-interpolation-filters="sRGB">
<feFlood flood-opacity="0" result="BackgroundImageFix"/>
<feColorMatrix in="SourceAlpha" type="matrix" values="0 0 0 0 0 0 0 0 0 0 0 0 0 0 0 0 0 0 127 0" result="hardAlpha"/>
<feOffset dy="4"/>
<feGaussianBlur stdDeviation="4"/>
<feComposite in2="hardAlpha" operator="out"/>
<feColorMatrix type="matrix" values="0 0 0 0 0.730208 0 0 0 0 0.730208 0 0 0 0 0.730208 0 0 0 0.16 0"/>
<feBlend mode="normal" in2="BackgroundImageFix" result="effect1_dropShadow_50_2173"/>
<feBlend mode="normal" in="SourceGraphic" in2="effect1_dropShadow_50_2173" result="shape"/>
</filter>
<clipPath id="clip0_50_2173">
<rect width="31.2704" height="32" fill="white" transform="translate(16 12)"/>
</clipPath>
</defs>
</svg>
