<svg width="26" height="26" viewBox="0 0 26 26" fill="none" xmlns="http://www.w3.org/2000/svg">
<path d="M0.0048262 15.6431C0.0048262 13.3259 0.013587 11.0088 4.75663e-05 8.69167C-0.00473107 7.82174 0.350481 7.2006 1.09515 6.75487C4.66559 4.62034 8.22885 2.47464 11.7929 0.330534C12.5161 -0.104826 13.2345 -0.112799 13.9584 0.32256C17.5488 2.48022 21.1391 4.63788 24.7311 6.79315C25.4335 7.21416 25.7624 7.82733 25.7617 8.64622C25.7561 13.31 25.7609 17.9745 25.7585 22.6383C25.7577 24.3893 24.5248 25.6189 22.7734 25.622C21.2634 25.6244 19.7533 25.6244 18.2441 25.622C17.0311 25.6204 16.2227 24.8159 16.2211 23.6071C16.2187 21.9366 16.2211 20.2654 16.2203 18.5949C16.2195 17.8844 15.8444 17.5065 15.1388 17.5057C13.6287 17.5049 12.1187 17.5041 10.6094 17.5057C9.91969 17.5065 9.54457 17.8844 9.54377 18.5789C9.54218 20.2399 9.54457 21.9008 9.54297 23.5617C9.54218 24.8327 8.74972 25.622 7.47542 25.6228C5.98528 25.6236 4.49515 25.6244 3.00501 25.6228C1.23453 25.6204 0.00641908 24.3941 0.0048262 22.6248C0.00323332 20.2973 0.0048262 17.9698 0.0048262 15.6431Z" fill="white"/>
</svg>
