<svg width="32" height="28" viewBox="0 0 32 28" fill="none" xmlns="http://www.w3.org/2000/svg">
<path d="M31.2208 4.82358C30.997 5.56896 30.7647 6.31189 30.5506 7.06032C29.5573 10.5253 28.5695 13.9915 27.5787 17.4565C27.3927 18.1073 27.1134 18.3148 26.4366 18.3148C21.0616 18.3154 15.6866 18.3148 10.3122 18.3148C9.57744 18.3148 9.15488 18.6463 9.15062 19.2256C9.14635 19.8031 9.57562 20.1462 10.3018 20.1462C15.6464 20.1462 20.9909 20.1462 26.3348 20.1462C26.4366 20.1462 26.5378 20.1438 26.6397 20.148C27.1653 20.1694 27.5555 20.5546 27.5604 21.0546C27.5653 21.5661 27.1683 21.9642 26.625 21.9752C26.1683 21.9843 25.7116 21.977 25.2494 21.9947C26.0018 22.1583 26.6244 22.5246 27.0628 23.1588C27.4988 23.7888 27.6348 24.4903 27.5073 25.2485C27.297 26.5042 26.0427 27.5206 24.7555 27.4675C23.2939 27.4071 22.1964 26.3326 22.0829 24.8498C21.9811 23.5202 22.9677 22.3024 24.4689 21.9959C20.3665 21.9959 16.3537 21.9959 12.3964 21.9959C12.6775 22.1168 13.0348 22.2157 13.3274 22.411C13.6335 22.6155 13.9244 22.8799 14.1348 23.179C14.339 23.4696 14.4903 23.8267 14.5585 24.1759C14.6293 24.5354 14.6262 24.9304 14.5616 25.293C14.3354 26.5597 13.0811 27.5316 11.811 27.4669C10.3653 27.393 9.28476 26.3638 9.16525 24.8938C9.07074 23.7339 9.76159 22.3781 11.4604 21.9385C10.8738 21.9385 10.2823 21.9874 9.70184 21.9281C8.5433 21.8097 7.58415 20.8934 7.37866 19.7848C7.15183 18.5608 7.69086 17.4046 8.76098 16.8204C8.82257 16.7868 8.88354 16.7508 8.96952 16.7014C7.87074 11.7511 6.77135 6.79782 5.66891 1.83231C4.6311 1.83231 3.61586 1.83231 2.60061 1.83231C2.1433 1.83231 1.68476 1.80789 1.22927 1.83842C0.661588 1.87627 0.243293 1.68947 0 1.1608C0 0.997811 0 0.835427 0 0.672434C0.192073 0.307987 0.439637 0.00580789 0.893905 0.00458697C2.72317 -0.000296739 4.55244 -0.00334727 6.38171 0.00642014C6.84574 0.008862 7.16037 0.273191 7.29269 0.721881C7.35549 0.935543 7.39269 1.15714 7.44147 1.37508C7.61098 2.13449 7.78111 2.89391 7.95306 3.6637C8.10306 3.6637 8.2244 3.6637 8.34574 3.6637C15.561 3.6637 22.7762 3.66798 29.9915 3.65577C30.5573 3.65455 30.9769 3.80716 31.2208 4.33521C31.2208 4.49821 31.2208 4.66059 31.2208 4.82358ZM29.0884 5.51463C22.161 5.51463 15.2701 5.51463 8.36098 5.51463C9.17501 9.18168 9.98415 12.8261 10.7933 16.4694C15.8653 16.4694 20.911 16.4694 25.9622 16.4694C27.0037 12.8182 28.0427 9.17863 29.0884 5.51463ZM12.8037 24.7259C12.8043 24.2278 12.3903 23.812 11.8927 23.8114C11.3957 23.8108 10.9799 24.2253 10.9793 24.7235C10.9787 25.2216 11.3927 25.6373 11.8903 25.6379C12.3872 25.6392 12.8031 25.224 12.8037 24.7259ZM25.7305 24.7326C25.7348 24.2351 25.3238 23.8157 24.8262 23.8114C24.3293 23.8072 23.9104 24.2186 23.9061 24.7167C23.9018 25.2143 24.3128 25.6337 24.8104 25.6379C25.3073 25.6428 25.7262 25.2308 25.7305 24.7326Z" fill="#9988BE"/>
</svg>
