<svg width="26" height="26" viewBox="0 0 26 26" fill="none" xmlns="http://www.w3.org/2000/svg">
<path d="M25.5624 6.249C25.5679 7.0344 25.3593 7.76718 24.8201 8.3341C23.7393 9.47034 22.6625 10.6193 21.4926 11.6591C20.2581 12.7563 18.5107 12.7634 17.2675 11.6671C16.0863 10.6249 14.9665 9.49825 13.9264 8.31496C12.8687 7.11254 12.8751 5.35516 13.936 4.15593C14.9801 2.97583 16.0991 1.84996 17.2794 0.807009C18.5115 -0.282186 20.2812 -0.263847 21.5061 0.831727C22.6586 1.86272 23.7306 2.98859 24.7922 4.11526C25.3776 4.738 25.5632 5.41895 25.5624 6.249Z" fill="white"/>
<path d="M10.8195 20.4391C10.7765 21.1471 10.7924 22.0601 10.6515 22.9476C10.4237 24.3804 9.17726 25.5191 7.7381 25.5821C6.1731 25.6498 4.60093 25.6538 3.03593 25.5821C1.47889 25.5111 0.13928 24.1939 0.0596366 22.635C-0.0216001 21.0499 -0.0176177 19.4543 0.058044 17.8684C0.13052 16.3558 1.40562 15.0226 2.91089 14.9365C4.57146 14.8416 6.24637 14.8456 7.90695 14.9397C9.34213 15.021 10.5663 16.3438 10.7048 17.8014C10.7821 18.6107 10.7789 19.428 10.8195 20.4391Z" fill="white"/>
<path d="M13.9448 20.2245C13.9775 19.4183 13.9759 18.601 14.0523 17.7909C14.1838 16.4075 15.2789 15.17 16.6567 14.9778C18.4694 14.7243 20.3068 14.7163 22.1171 14.9818C23.5156 15.1867 24.6378 16.4609 24.6999 17.8778C24.7692 19.4542 24.7748 21.0394 24.6991 22.615C24.6243 24.1738 23.2974 25.5038 21.7404 25.5795C20.1666 25.6561 18.5833 25.6545 17.0087 25.5803C15.4724 25.5078 14.1965 24.2105 14.05 22.6763C13.9727 21.8654 13.9775 21.0481 13.9448 20.2245Z" fill="white"/>
<path d="M5.17183 11.6849C4.47017 11.641 3.55904 11.6546 2.67261 11.5134C1.26291 11.2886 0.120818 10.0407 0.0571025 8.61504C-0.0129841 7.03865 -0.0169664 5.4543 0.0563059 3.87791C0.128782 2.32146 1.45724 0.985082 3.01269 0.91013C4.58645 0.833584 6.16977 0.835975 7.74433 0.909332C9.28145 0.981095 10.6115 2.27442 10.6951 3.81013C10.7827 5.42399 10.7811 7.04981 10.6959 8.66447C10.6155 10.185 9.32526 11.4273 7.81282 11.5717C7.00364 11.6482 6.18729 11.6442 5.17183 11.6849Z" fill="white"/>
</svg>
