<svg width="18" height="19" viewBox="0 0 18 19" fill="none" xmlns="http://www.w3.org/2000/svg">
<path d="M12.9634 14.4143C9.42059 17.1362 4.54311 16.1161 2.1772 12.8602C-0.0597281 9.78231 0.311172 5.45488 3.06338 2.84532C5.88296 0.172152 10.1739 0.0121871 13.1649 2.47142C16.2199 4.98334 16.9284 9.56903 14.3911 12.9656C14.4457 13.0247 14.5021 13.0889 14.5618 13.1487C15.5859 14.1746 16.6094 15.2006 17.6349 16.2246C17.9352 16.524 18.0757 16.8684 17.9589 17.2911C17.7658 17.9894 16.938 18.2714 16.3605 17.8346C16.2777 17.7723 16.2045 17.6965 16.1314 17.6232C15.1291 16.621 14.1274 15.6182 13.127 14.6141C13.0654 14.5524 13.0153 14.4785 12.9634 14.4143ZM8.33165 13.9196C11.4098 13.9144 13.8803 11.4391 13.8823 8.35804C13.8842 5.26729 11.4021 2.78364 8.31561 2.78814C5.23806 2.792 2.7682 5.26793 2.76563 8.34969C2.76371 11.4417 5.24512 13.9247 8.33165 13.9196Z" fill="black"/>
</svg>
