<svg width="24" height="27" viewBox="0 0 24 27" fill="none" xmlns="http://www.w3.org/2000/svg">
<path d="M12.2253 0C12.7541 0.114343 13.2975 0.185722 13.8097 0.350653C16.8532 1.32846 18.8862 4.33119 18.6377 7.44688C18.3733 10.7635 15.9935 13.3872 12.7755 13.9111C8.80169 14.5577 5.10956 11.7199 4.69978 7.70467C4.31147 3.89184 7.09129 0.450444 10.8852 0.0450444C10.9523 0.0381145 11.0181 0.0152458 11.0845 0C11.4652 0 11.8452 0 12.2253 0Z" fill="white"/>
<path d="M11.6567 26.5587C8.08289 26.5587 4.50912 26.5587 0.936043 26.5587C0.281925 26.5587 -0.00879605 26.2621 0.000202405 25.6059C0.0659603 20.6836 3.69718 16.4716 8.56673 15.6815C9.00835 15.6102 9.45896 15.5755 9.90611 15.5693C11.0282 15.5533 12.1502 15.5533 13.2722 15.5644C17.7839 15.6088 21.7578 18.6864 22.9428 23.0467C23.1726 23.8921 23.2972 24.7535 23.3104 25.6294C23.32 26.251 23.0196 26.5587 22.4029 26.5587C18.8208 26.5587 15.2387 26.5587 11.6567 26.5587Z" fill="white"/>
</svg>
