<svg width="28" height="23" viewBox="0 0 28 23" fill="none" xmlns="http://www.w3.org/2000/svg">
<g clip-path="url(#clip0_113_5749)">
<path d="M14.0436 3.51712C15.0813 1.96155 16.4787 0.847607 18.332 0.298949C21.5871 -0.66432 25.1319 0.756164 26.8737 3.75508C28.2886 6.19183 28.3575 8.70028 27.1558 11.2378C26.0821 13.5052 24.407 15.3465 22.546 17.0476C20.1339 19.2536 17.4529 21.1282 14.6078 22.7981C14.2383 23.0153 13.8884 23.0901 13.4882 22.8552C9.46664 20.4964 5.71297 17.83 2.75421 14.2762C1.39401 12.6417 0.322467 10.8565 0.0578624 8.7408C-0.426518 4.86071 2.14627 0.870468 6.23234 0.145159C9.29935 -0.398304 11.7169 0.709404 13.5822 3.01938C13.7036 3.17005 13.8151 3.328 13.9343 3.48075C13.942 3.49114 13.9649 3.49218 14.0436 3.51712ZM26.3521 7.70895C26.3128 6.10558 25.7562 4.60508 24.5469 3.34566C22.5679 1.28508 19.4123 0.982694 17.079 2.63075C15.9768 3.40905 15.2431 4.44298 14.797 5.66811C14.6636 6.03596 14.4088 6.26457 13.9999 6.26769C13.591 6.2708 13.3384 6.04531 13.1919 5.68162C13.0432 5.31065 12.8835 4.93968 12.6845 4.59262C11.3528 2.26082 8.74499 1.11778 6.21156 1.74126C3.31294 2.4541 1.22453 5.61304 1.68267 8.57247C1.97133 10.4356 2.93462 11.9891 4.13956 13.4241C6.79873 16.5924 10.1544 18.9918 13.7233 21.1428C13.872 21.2321 14.2098 21.176 14.3837 21.0721C16.7334 19.6703 18.9531 18.1012 20.9868 16.3025C22.7144 14.775 24.2944 13.128 25.3943 11.1173C25.964 10.0761 26.3357 8.98188 26.3521 7.70895Z" fill="#9988BE"/>
</g>
<defs>
<clipPath id="clip0_113_5749">
<rect width="28" height="23" fill="white"/>
</clipPath>
</defs>
</svg>
