<svg width="249" height="83" viewBox="0 0 249 83" fill="none" xmlns="http://www.w3.org/2000/svg">
<path d="M35.062 39.5968C47.4862 36.6452 62.7341 30.5 62.7341 17.9516C62.7341 4.91936 47.8573 0 33.4646 0C31.4961 0 29.5276 0.129032 27.6721 0.241935C27.6721 0.241935 48.0994 2.33871 48.0994 20.0484C48.0994 35.2903 32.1093 39.5968 23.251 42.3065C41.0966 42.4194 36.4174 73.2903 50.5681 83C54.021 82.2581 57.8289 82.1452 61.3948 82.1452C68.0426 82.1452 73.577 82.8871 73.819 83C51.6653 72.7903 54.8601 42.4194 35.062 39.5968ZM18.0716 21.2742C18.0716 18.6129 18.12 16.371 18.2006 14.4355L16.6517 15.1613L14.4573 19.8548L12.2629 15.1613L7.58361 12.9677L12.2629 10.7742L14.4573 6.08065L16.6517 10.7742L18.3943 11.5806C18.8945 5.62903 19.9594 3.35484 21.5407 0.241935C20.2014 0.33871 18.8461 0.419355 17.4423 0.483871L18.0232 1.70968L20.2821 2.75806L18.0232 3.82258L16.9744 6.08065L15.9094 3.82258L13.6505 2.75806L15.9094 1.70968L16.458 0.516129C14.5702 0.580645 12.6178 0.612903 10.5848 0.612903C6.76071 0.612903 3.19481 0.5 2.20212e-05 0.241935C0.984276 2.22581 1.79104 3.87097 2.35578 6.32258L4.7438 5.20968L6.32506 1.85484L7.90632 5.19355L11.2786 6.77419L7.90632 8.35484L6.32506 11.7258L4.7438 8.35484L2.58167 7.33871C3.14641 10.2903 3.43684 14.4194 3.43684 21.2742V61.8548C3.43684 75.7419 2.21056 78.5806 -0.0161133 83C3.30776 82.7581 6.87366 82.629 10.5686 82.629C14.5057 82.629 18.0716 82.7581 21.5245 83C19.2978 78.5806 18.0716 75.7419 18.0716 61.8548V21.2742Z" fill="white"/>
<path d="M70.1885 41.3548C70.1885 30.7419 77.8689 21.9193 87.9212 19.9354C84.1294 21.5483 81.1928 26.758 81.1928 34.2419C81.1928 36.3225 81.3864 38.4999 81.8543 40.7741C83.9358 51.1935 90.3899 57.6451 99.6838 57.6451C104.702 57.6451 108.978 55.5644 110.591 54.2257C110.22 54.887 105.089 63.0322 92.8586 63.0322C79.4663 63.0645 70.1885 53.3064 70.1885 41.3548ZM87.2435 37.2903L96.4406 36.5322C98.8125 36.3386 100.232 34.7257 100.232 32.5483C99.942 26.0161 95.5854 20.3225 90.6642 19.5645C99.1029 19.5645 109.72 22.129 112.285 37.2903H87.2435Z" fill="white"/>
<path d="M130.922 62.7743C128.082 62.7743 125.323 62.871 122.773 63.0646C125.42 57.8549 125.42 55.0968 125.42 39.0807C125.42 28.371 124.564 26.1936 122.773 22.7743C124.952 22.6775 127.614 22.4839 130.744 22.0162C133.487 21.5485 136.44 20.6936 137.666 20.2097C137.005 22.4839 136.714 25.8065 136.714 36.5162V46.7581C136.714 57.4678 137.666 59.6452 139.377 63.0646C136.698 62.871 133.955 62.7743 130.922 62.7743ZM158.884 62.7743C156.044 62.7743 153.285 62.871 150.736 63.0646C152.543 59.6452 153.398 57.4678 153.398 46.7581V38.4194C153.398 28.0001 149.897 23.5323 144.104 23.5323C142.394 23.5323 140.603 23.9033 138.505 24.6775C139.828 23.8226 144.572 19.9355 151.962 19.9355C160.304 19.9355 164.661 24.9517 164.661 34.242V46.7581C164.661 57.8388 165.613 59.742 167.307 63.0646C164.758 62.871 161.918 62.7743 158.884 62.7743ZM186.282 62.7743C183.442 62.7743 180.683 62.871 178.134 63.0646C179.941 59.6452 180.796 57.4678 180.796 46.7581V38.4194C180.796 28.0001 177.295 23.5323 171.502 23.5323C169.792 23.5323 168.001 23.9033 165.903 24.6775C167.226 23.8226 171.97 19.9355 179.36 19.9355C187.799 19.9355 192.058 24.9517 192.058 34.242V46.7581C192.058 57.8388 193.01 59.742 194.705 63.0646C192.155 62.871 189.315 62.7743 186.282 62.7743Z" fill="white"/>
<path d="M206.532 53.9678C206.532 38.9033 229.767 37.0001 232.8 32.6452C232.429 36.6291 218.859 40.6936 218.859 51.1291C218.859 55.2097 221.699 56.6291 224.555 56.6291C228.815 56.6291 232.703 53.3065 234.898 50.6614C231.106 57.4839 224.652 63.0807 217.068 63.0807C210.13 63.0646 206.532 58.8872 206.532 53.9678ZM207.855 26.5807C216.487 21.5646 220.65 20.8872 220.65 20.8872C214.115 24.4839 221.408 30.742 212.776 35.3872C212.792 35.3872 211.179 30.9355 207.855 26.5807ZM241.336 62.7743C238.399 62.7743 235.93 62.871 233.462 63.0646C234.978 60.9839 235.075 57.4678 235.075 46.7581V34.242C235.075 27.0323 233.171 20.4033 224.732 20.4033C223.684 20.4033 222.651 20.5001 221.408 20.6936C224.151 20.0323 225.959 19.9355 228.427 19.9355C236.866 19.9355 246.354 23.2581 246.354 35.0001V46.7581C246.354 57.8388 247.306 59.742 249 63.0646C246.354 62.871 244.272 62.7743 241.336 62.7743Z" fill="white"/>
<path d="M129.228 76.0476C128.986 75.4186 128.631 74.8863 128.066 74.5476C127.679 74.3057 127.13 74.1605 126.614 74.1605C126.113 74.1444 125.629 74.2573 125.226 74.467C124.758 74.725 124.452 75.2089 124.452 75.7089C124.452 76.0476 124.564 76.3702 124.807 76.596C125.097 76.9025 125.597 77.096 126.13 77.2573L127.808 77.7573C128.469 77.9347 129.05 78.2089 129.502 78.6605C129.954 79.1121 130.26 79.7412 130.244 80.3863C130.244 81.1605 129.825 81.9509 129.195 82.4025C128.55 82.8541 127.662 83.0154 126.791 83.0154C125.597 83.0154 124.677 82.6444 123.903 81.8218C123.483 81.3541 123.225 80.725 123.096 80.2089L124.064 79.9186C124.161 80.3541 124.322 80.7734 124.694 81.1928C125.178 81.7734 125.984 82.1121 126.84 82.1121C127.469 82.1121 128.195 81.9509 128.631 81.6283C129.066 81.3218 129.244 80.8218 129.244 80.3702C129.244 79.9831 129.099 79.6283 128.808 79.3541C128.502 79.0476 128.082 78.838 127.582 78.7089L125.855 78.2089C125.242 78.0154 124.613 77.7896 124.129 77.338C123.677 76.9186 123.451 76.2734 123.451 75.7089C123.451 74.8541 124.032 74.0476 124.79 73.6605C125.371 73.3541 126.017 73.2734 126.614 73.2734C127.275 73.2734 128.001 73.4347 128.55 73.7734C129.324 74.2089 129.873 74.9509 130.18 75.838L129.228 76.0476Z" fill="white"/>
<path d="M159.594 74.3393H156.303V82.807H155.351V74.3393H152.059V73.4199H159.578V74.3393H159.594Z" fill="white"/>
<path d="M182.539 81.4997C181.78 80.532 181.522 79.3062 181.506 78.1126C181.49 76.9191 181.78 75.6933 182.539 74.7255C183.297 73.7255 184.539 73.2094 185.83 73.2417C187.137 73.2578 188.347 73.7255 189.122 74.7255C189.896 75.7094 190.122 76.9191 190.138 78.1126C190.138 79.3223 189.896 80.5159 189.122 81.4997C188.347 82.4997 187.153 82.9997 185.83 82.9997C184.491 82.9997 183.297 82.5159 182.539 81.4997ZM188.347 80.9191C188.944 80.1449 189.122 79.1288 189.122 78.1126C189.138 77.1288 188.944 76.0804 188.347 75.3223C187.783 74.5481 186.815 74.1449 185.83 74.1449C184.846 74.161 183.862 74.532 183.281 75.3223C182.7 76.0804 182.506 77.1126 182.506 78.1126C182.49 79.1126 182.684 80.1449 183.281 80.9191C183.862 81.6933 184.83 82.0965 185.83 82.0804C186.831 82.0804 187.799 81.6933 188.347 80.9191Z" fill="white"/>
<path d="M218.537 82.807L216.81 79.2264C216.697 79.2425 216.584 79.2425 216.487 79.2425H213.809V82.807H212.857V73.4199H216.487C217.343 73.4199 218.02 73.7264 218.52 74.1941C219.117 74.7748 219.44 75.5006 219.44 76.3231C219.44 77.0973 219.134 77.807 218.666 78.3231C218.424 78.5812 218.133 78.807 217.794 78.9522L219.666 82.7909H218.537V82.807ZM216.487 78.3231C217.036 78.3231 217.601 78.0651 217.972 77.6135C218.278 77.2586 218.44 76.7909 218.424 76.3231C218.407 75.807 218.23 75.2748 217.859 74.8877C217.52 74.5328 217.02 74.3393 216.471 74.3393H213.793V78.307H216.487V78.3231Z" fill="white"/>
<path d="M243.03 74.3388V77.5968H247.16V78.5162H243.03V81.9033H247.951V82.8226H242.078V73.4355H247.951V74.3549H243.03V74.3388Z" fill="white"/>
</svg>
