<svg width="155" height="52" viewBox="0 0 155 52" fill="none" xmlns="http://www.w3.org/2000/svg">
<path d="M21.73 24.55C29.43 22.72 38.88 18.91 38.88 11.13C38.88 3.05 29.66 0 20.74 0C19.52 0 18.3 0.08 17.15 0.15C17.15 0.15 29.81 1.45 29.81 12.43C29.81 21.88 19.9 24.55 14.41 26.23C25.47 26.3 22.57 45.44 31.34 51.46C33.48 51 35.84 50.93 38.05 50.93C42.17 50.93 45.6 51.39 45.75 51.46C32.02 45.13 34 26.3 21.73 24.55ZM11.2 13.19C11.2 11.54 11.23 10.15 11.28 8.95L10.32 9.4L8.95999 12.31L7.59999 9.4L4.69999 8.04L7.59999 6.68L8.95999 3.77L10.32 6.68L11.4 7.18C11.71 3.49 12.37 2.08 13.35 0.15C12.52 0.21 11.68 0.26 10.81 0.3L11.17 1.06L12.57 1.71L11.17 2.37L10.52 3.77L9.85999 2.37L8.45999 1.71L9.85999 1.06L10.2 0.32C9.02999 0.36 7.81999 0.38 6.55999 0.38C4.18999 0.38 1.97999 0.31 -9.76585e-06 0.15C0.60999 1.38 1.10999 2.4 1.45999 3.92L2.93999 3.23L3.91999 1.15L4.89999 3.22L6.98999 4.2L4.89999 5.18L3.91999 7.27L2.93999 5.18L1.59999 4.55C1.94999 6.38 2.12999 8.94 2.12999 13.19V38.35C2.12999 46.96 1.36999 48.72 -0.0100098 51.46C2.04999 51.31 4.25999 51.23 6.54999 51.23C8.98999 51.23 11.2 51.31 13.34 51.46C11.96 48.72 11.2 46.96 11.2 38.35V13.19Z" fill="#9988BE"/>
<path d="M43.5 25.6409C43.5 19.0609 48.26 13.5909 54.49 12.3609C52.14 13.3609 50.32 16.5909 50.32 21.2309C50.32 22.5209 50.44 23.8709 50.73 25.2809C52.02 31.7409 56.02 35.7409 61.78 35.7409C64.89 35.7409 67.54 34.4509 68.54 33.6209C68.31 34.0309 65.13 39.0809 57.55 39.0809C49.25 39.1009 43.5 33.0509 43.5 25.6409ZM54.07 23.1209L59.77 22.6509C61.24 22.5309 62.12 21.5309 62.12 20.1809C61.94 16.1309 59.24 12.6009 56.19 12.1309C61.42 12.1309 68 13.7209 69.59 23.1209H54.07Z" fill="#9988BE"/>
<path d="M81.1401 38.9194C79.3801 38.9194 77.6701 38.9794 76.0901 39.0994C77.7301 35.8694 77.7301 34.1594 77.7301 24.2294C77.7301 17.5894 77.2001 16.2394 76.0901 14.1194C77.4401 14.0594 79.0901 13.9394 81.0301 13.6494C82.7301 13.3594 84.5601 12.8294 85.3201 12.5294C84.9101 13.9394 84.7301 15.9994 84.7301 22.6394V28.9894C84.7301 35.6294 85.3201 36.9794 86.3801 39.0994C84.7201 38.9794 83.0201 38.9194 81.1401 38.9194ZM98.4701 38.9194C96.7101 38.9194 95.0001 38.9794 93.4201 39.0994C94.5401 36.9794 95.0701 35.6294 95.0701 28.9894V23.8194C95.0701 17.3594 92.9001 14.5894 89.3101 14.5894C88.2501 14.5894 87.1401 14.8194 85.8401 15.2994C86.6601 14.7694 89.6001 12.3594 94.1801 12.3594C99.3501 12.3594 102.05 15.4694 102.05 21.2294V28.9894C102.05 35.8594 102.64 37.0394 103.69 39.0994C102.11 38.9794 100.35 38.9194 98.4701 38.9194ZM115.45 38.9194C113.69 38.9194 111.98 38.9794 110.4 39.0994C111.52 36.9794 112.05 35.6294 112.05 28.9894V23.8194C112.05 17.3594 109.88 14.5894 106.29 14.5894C105.23 14.5894 104.12 14.8194 102.82 15.2994C103.64 14.7694 106.58 12.3594 111.16 12.3594C116.39 12.3594 119.03 15.4694 119.03 21.2294V28.9894C119.03 35.8594 119.62 37.0394 120.67 39.0994C119.09 38.9794 117.33 38.9194 115.45 38.9194Z" fill="#9988BE"/>
<path d="M128 33.4594C128 24.1194 142.4 22.9394 144.28 20.2394C144.05 22.7094 135.64 25.2294 135.64 31.6994C135.64 34.2294 137.4 35.1094 139.17 35.1094C141.81 35.1094 144.22 33.0494 145.58 31.4094C143.23 35.6394 139.23 39.1094 134.53 39.1094C130.23 39.0994 128 36.5094 128 33.4594ZM128.82 16.4794C134.17 13.3694 136.75 12.9494 136.75 12.9494C132.7 15.1794 137.22 19.0594 131.87 21.9394C131.88 21.9394 130.88 19.1794 128.82 16.4794ZM149.57 38.9194C147.75 38.9194 146.22 38.9794 144.69 39.0994C145.63 37.8094 145.69 35.6294 145.69 28.9894V21.2294C145.69 16.7594 144.51 12.6494 139.28 12.6494C138.63 12.6494 137.99 12.7094 137.22 12.8294C138.92 12.4194 140.04 12.3594 141.57 12.3594C146.8 12.3594 152.68 14.4194 152.68 21.6994V28.9894C152.68 35.8594 153.27 37.0394 154.32 39.0994C152.68 38.9794 151.39 38.9194 149.57 38.9194Z" fill="#9988BE"/>
<path d="M80.09 47.1497C79.94 46.7597 79.72 46.4297 79.37 46.2197C79.13 46.0697 78.79 45.9797 78.47 45.9797C78.16 45.9697 77.86 46.0397 77.61 46.1697C77.32 46.3297 77.13 46.6297 77.13 46.9397C77.13 47.1497 77.2 47.3497 77.35 47.4897C77.53 47.6797 77.84 47.7997 78.17 47.8997L79.21 48.2097C79.62 48.3197 79.98 48.4897 80.26 48.7697C80.54 49.0497 80.73 49.4397 80.72 49.8397C80.72 50.3197 80.46 50.8097 80.07 51.0897C79.67 51.3697 79.12 51.4697 78.58 51.4697C77.84 51.4697 77.27 51.2397 76.79 50.7297C76.53 50.4397 76.37 50.0497 76.29 49.7297L76.89 49.5497C76.95 49.8197 77.05 50.0797 77.28 50.3397C77.58 50.6997 78.08 50.9097 78.61 50.9097C79 50.9097 79.45 50.8097 79.72 50.6097C79.99 50.4197 80.1 50.1097 80.1 49.8297C80.1 49.5897 80.01 49.3697 79.83 49.1997C79.64 49.0097 79.38 48.8797 79.07 48.7997L78 48.4897C77.62 48.3697 77.23 48.2297 76.93 47.9497C76.65 47.6897 76.51 47.2897 76.51 46.9397C76.51 46.4097 76.87 45.9097 77.34 45.6697C77.7 45.4797 78.1 45.4297 78.47 45.4297C78.88 45.4297 79.33 45.5297 79.67 45.7397C80.15 46.0097 80.49 46.4697 80.68 47.0197L80.09 47.1497Z" fill="#9988BE"/>
<path d="M98.91 46.0895H96.87V51.3395H96.28V46.0895H94.24V45.5195H98.9V46.0895H98.91Z" fill="#9988BE"/>
<path d="M113.13 50.5291C112.66 49.9291 112.5 49.1691 112.49 48.4291C112.48 47.6891 112.66 46.9291 113.13 46.3291C113.6 45.7091 114.37 45.3891 115.17 45.4091C115.98 45.4191 116.73 45.7091 117.21 46.3291C117.69 46.9391 117.83 47.6891 117.84 48.4291C117.84 49.1791 117.69 49.9191 117.21 50.5291C116.73 51.1491 115.99 51.4591 115.17 51.4591C114.34 51.4591 113.6 51.1591 113.13 50.5291ZM116.73 50.1691C117.1 49.6891 117.21 49.0591 117.21 48.4291C117.22 47.8191 117.1 47.1691 116.73 46.6991C116.38 46.2191 115.78 45.9691 115.17 45.9691C114.56 45.9791 113.95 46.2091 113.59 46.6991C113.23 47.1691 113.11 47.8091 113.11 48.4291C113.1 49.0491 113.22 49.6891 113.59 50.1691C113.95 50.6491 114.55 50.8991 115.17 50.8891C115.79 50.8891 116.39 50.6491 116.73 50.1691Z" fill="#9988BE"/>
<path d="M135.44 51.3395L134.37 49.1195C134.3 49.1295 134.23 49.1295 134.17 49.1295H132.51V51.3395H131.92V45.5195H134.17C134.7 45.5195 135.12 45.7095 135.43 45.9995C135.8 46.3595 136 46.8095 136 47.3195C136 47.7995 135.81 48.2395 135.52 48.5595C135.37 48.7195 135.19 48.8595 134.98 48.9495L136.14 51.3295H135.44V51.3395ZM134.17 48.5595C134.51 48.5595 134.86 48.3995 135.09 48.1195C135.28 47.8995 135.38 47.6095 135.37 47.3195C135.36 46.9995 135.25 46.6695 135.02 46.4295C134.81 46.2095 134.5 46.0895 134.16 46.0895H132.5V48.5495H134.17V48.5595Z" fill="#9988BE"/>
<path d="M150.62 46.0893V48.1093H153.18V48.6793H150.62V50.7793H153.67V51.3493H150.03V45.5293H153.67V46.0993H150.62V46.0893Z" fill="#9988BE"/>
</svg>
